<?xml version="1.0" encoding="UTF-8"?>
<svg width="48" height="48" viewBox="0 0 48 48" fill="none" xmlns="http://www.w3.org/2000/svg">
  <rect width="48" height="48" rx="8" fill="#4F46E5"/>
  <path d="M36 24.5C36 24.5 32 29.5 24 29.5C16 29.5 12 24.5 12 24.5C12 24.5 16 19.5 24 19.5C32 19.5 36 24.5 36 24.5Z" stroke="white" stroke-width="2" stroke-linecap="round" stroke-linejoin="round"/>
  <circle cx="24" cy="24.5" r="4" stroke="white" stroke-width="2" stroke-linecap="round" stroke-linejoin="round"/>
  <path d="M24 13.5V16.5" stroke="white" stroke-width="2" stroke-linecap="round" stroke-linejoin="round"/>
  <path d="M32.5 16.5L30.5 19" stroke="white" stroke-width="2" stroke-linecap="round" stroke-linejoin="round"/>
  <path d="M36 24.5H33" stroke="white" stroke-width="2" stroke-linecap="round" stroke-linejoin="round"/>
  <path d="M32.5 32.5L30.5 30" stroke="white" stroke-width="2" stroke-linecap="round" stroke-linejoin="round"/>
  <path d="M24 35.5V32.5" stroke="white" stroke-width="2" stroke-linecap="round" stroke-linejoin="round"/>
  <path d="M15.5 32.5L17.5 30" stroke="white" stroke-width="2" stroke-linecap="round" stroke-linejoin="round"/>
  <path d="M12 24.5H15" stroke="white" stroke-width="2" stroke-linecap="round" stroke-linejoin="round"/>
  <path d="M15.5 16.5L17.5 19" stroke="white" stroke-width="2" stroke-linecap="round" stroke-linejoin="round"/>
</svg> 